<svg xmlns="http://www.w3.org/2000/svg" viewBox="0 0 210.23 210.23">
  <style>
    @media (prefers-color-scheme: dark) {
      .a {
        fill: #f0f0f0;
      }
    }
  </style>
  <path d="M33.74 86.7A17.83 17.83 0 1056.2 58.97a17.7 17.7 0 00-13.1-3.88c-4.75.5-9.01 2.81-12.02 6.52-3 3.7-4.37 8.36-3.88 13.1.5 4.74 2.82 9 6.53 12zm3.52-20.1A9.85 9.85 0 0145 62.9a9.93 9.93 0 11-6.26 17.62 9.85 9.85 0 01-3.63-6.66 9.85 9.85 0 012.16-7.28zM113.47 134.56a17.73 17.73 0 00-13.64.84 17.74 17.74 0 00-9.05 10.23 17.73 17.73 0 00.83 13.64c2.1 4.28 5.73 7.5 10.24 9.05a17.85 17.85 0 1011.62-33.75zm3.56 20.11a9.83 9.83 0 01-5.03 5.69 9.83 9.83 0 01-7.57.46 9.86 9.86 0 01-5.69-5.03 9.84 9.84 0 01-.46-7.57 9.83 9.83 0 019.36-6.7 9.94 9.94 0 019.4 13.15zM150.7 107a17.74 17.74 0 00-11.13-7.93 17.78 17.78 0 00-13.47 2.25 17.87 17.87 0 009.46 32.99c8.12 0 15.49-5.6 17.39-13.84 1.07-4.64.27-9.43-2.26-13.47zm-5.48 11.7a9.93 9.93 0 01-11.9 7.42 9.93 9.93 0 012.22-19.58 9.85 9.85 0 018.43 4.67 9.83 9.83 0 011.25 7.48zM52.4 112.44a17.73 17.73 0 00-7.93-11.12A17.72 17.72 0 0031 99.07 17.72 17.72 0 0019.87 107a17.74 17.74 0 00-2.25 13.47 17.88 17.88 0 0021.4 13.38 17.87 17.87 0 0013.38-21.4zm-15.16 13.68a9.93 9.93 0 11-2.21-19.58c1.84 0 3.64.51 5.23 1.51a9.93 9.93 0 01-3.02 18.07zM103.13 53.42c0-9.85-8-17.85-17.85-17.85s-17.85 8-17.85 17.85 8.01 17.85 17.85 17.85 17.85-8.01 17.85-17.85zm-17.85 9.91a9.93 9.93 0 010-19.83 9.93 9.93 0 010 19.83zM125.62 90.67c3.94 0 7.91-1.3 11.21-3.96 3.7-3 6.02-7.27 6.52-12.01s-.88-9.4-3.88-13.1a17.88 17.88 0 00-25.1-2.64 17.83 17.83 0 0011.25 31.71zm-6.26-25.54a9.93 9.93 0 0112.48 15.4 9.92 9.92 0 01-12.48-15.4zM70.73 135.4a17.72 17.72 0 00-13.63-.83 17.73 17.73 0 00-10.23 9.05 17.72 17.72 0 00-.84 13.63 17.73 17.73 0 009.05 10.24 17.78 17.78 0 0013.64.83 17.72 17.72 0 0010.23-9.05c2.1-4.29 2.4-9.13.84-13.64a17.74 17.74 0 00-9.06-10.23zm1.09 20.4a9.84 9.84 0 01-5.68 5.02c-2.51.87-5.2.7-7.58-.46a9.83 9.83 0 01-5.03-5.69 9.94 9.94 0 0113.72-12.14 9.83 9.83 0 015.03 5.69c.87 2.5.7 5.19-.46 7.57z" fill="#000" class="a" />
  <path d="M210.2 185.86a3.94 3.94 0 00-4.37-3.5c-32.06 3.51-44.85-33.43-45.39-35-.13-.4-.37-.74-.6-1.06a84.7 84.7 0 0010.73-41.32c0-47.02-38.26-85.28-85.29-85.28C38.26 19.7 0 57.96 0 104.98c0 47.03 38.26 85.29 85.28 85.29 28.64 0 53.98-14.24 69.45-35.96 4.73 10.53 19.12 36.22 46.8 36.22 1.68 0 3.4-.1 5.17-.29a3.97 3.97 0 003.5-4.38zm-124.92-3.53c-42.65 0-77.35-34.7-77.35-77.35s34.7-77.35 77.35-77.35c42.65 0 77.35 34.7 77.35 77.35s-34.7 77.35-77.35 77.35z" fill="#000" class="a" />
</svg>
